# xmcd
#
# Track frame offsets: 
#        150
#        15217
#        31442
#        48922
#        64607
#        78550
#        91387
#        112390
#        128930
#        143107
#
# Disc length: 2160 seconds
#
# Revision: 0
# Processed by: cddbd v1.5PL3 Copyright (c) Steve Scherf et al.
# Submitted via: ExactAudioCopy v0.90b4
#
DISCID=82086e0a
DTITLE=Lorrie Morgan - All American Country
DYEAR=1900
DGENRE=Country
TTITLE0=I Didn't Know My Own Strength
TTITLE1=Watch Me
TTITLE2=My Night To Howl
TTITLE3=He Talks To Me
TTITLE4=We Both Walk
TTITLE5=Go Away
TTITLE6=Something In Red
TTITLE7=If You Came Back From Heaven
TTITLE8=Hand Over Your Heart
TTITLE9=You'd Think He'd Know Me Better
EXTD=
EXTT0=
EXTT1=
EXTT2=
EXTT3=
EXTT4=
EXTT5=
EXTT6=
EXTT7=
EXTT8=
EXTT9=
PLAYORDER=
